<?xml version="1.0" standalone="no"?>
<!DOCTYPE svg PUBLIC "-//W3C//DTD SVG 20010904//EN"
 "http://www.w3.org/TR/2001/REC-SVG-20010904/DTD/svg10.dtd">
<svg version="1.0" xmlns="http://www.w3.org/2000/svg"
 width="900.000000pt" height="500.000000pt" viewBox="0 0 900.000000 500.000000"
 preserveAspectRatio="xMidYMid meet">
<metadata>
Created by potrace 1.10, written by Peter Selinger 2001-2011
</metadata>
<g transform="translate(0.000000,500.000000) scale(0.100000,-0.100000)"
fill="#000000" stroke="none">
<path d="M2070 4615 c-201 -46 -368 -84 -371 -84 -4 -1 -10 10 -13 24 -8 31
-59 70 -111 84 -52 14 -164 14 -222 0 -28 -8 -58 -25 -80 -46 -32 -32 -34 -38
-31 -91 2 -30 8 -57 14 -59 8 -3 10 12 6 46 -4 45 -2 53 25 80 36 36 87 51
176 51 89 0 152 -16 180 -47 12 -13 30 -33 41 -43 15 -15 17 -27 12 -62 -15
-91 -135 -286 -197 -320 -44 -23 -83 -6 -131 58 -28 36 -110 185 -123 221 -1
1 -230 -50 -510 -113 -281 -63 -527 -118 -547 -121 -21 -3 -38 -9 -38 -12 0
-4 70 -317 155 -696 85 -378 155 -689 155 -691 0 -2 12 1 28 6 15 5 536 122
1157 261 622 139 1131 253 1133 255 3 1 -291 1322 -304 1367 -3 9 -13 17 -22
16 -9 -1 -181 -39 -382 -84z m409 -87 c121 -526 262 -1171 257 -1183 -3 -8
-12 -15 -20 -15 -8 0 -217 -45 -463 -101 -246 -56 -477 -107 -513 -115 -36 -8
-333 -74 -660 -148 -524 -117 -596 -132 -602 -117 -9 23 -288 1272 -288 1292
0 13 19 21 72 33 40 9 224 51 408 92 184 41 371 84 415 95 152 37 156 36 175
-21 7 -22 17 -40 22 -40 5 0 6 -4 3 -10 -3 -5 -2 -10 3 -10 8 0 36 -51 32 -58
-1 -2 13 -17 31 -33 18 -16 29 -29 24 -29 -4 0 0 -9 10 -20 10 -11 22 -17 26
-14 5 3 9 1 9 -5 0 -6 7 -8 15 -5 8 4 15 1 15 -5 0 -6 7 -11 16 -11 8 0 13 4
10 9 -3 5 3 11 14 14 13 3 18 1 14 -6 -3 -7 3 -2 14 11 11 12 26 22 33 22 7 0
10 3 7 6 -4 3 1 14 10 24 43 46 62 73 62 86 0 8 5 14 10 14 6 0 10 6 10 13 0
6 14 39 30 71 17 33 33 77 36 98 6 33 33 66 45 54 2 -3 148 29 324 69 176 40
330 73 342 74 19 1 24 -11 52 -131z"/>
<path d="M2127 4252 c-14 -15 -17 -42 -17 -148 l0 -129 -32 39 c-34 42 -97 75
-140 76 -15 0 -46 -7 -68 -16 -31 -13 -44 -14 -53 -5 -6 6 -39 11 -72 11 -72
0 -95 -17 -95 -71 l0 -34 -22 32 c-34 48 -86 72 -164 78 -81 5 -137 -8 -181
-41 -20 -15 -34 -20 -38 -13 -4 6 -4 13 -1 16 12 12 -27 43 -54 43 -15 0 -48
-11 -73 -24 -45 -24 -46 -24 -63 -5 -13 15 -31 19 -80 19 -35 0 -66 -5 -69
-10 -4 -6 -17 -2 -33 10 -28 23 -68 20 -109 -6 -18 -12 -28 -11 -64 1 -112 40
-240 -9 -288 -109 -27 -59 -27 -111 2 -167 l22 -45 -22 -33 c-25 -37 -29 -81
-11 -111 10 -15 9 -22 -5 -38 -11 -12 -17 -35 -17 -65 0 -58 39 -108 106 -133
57 -22 210 -24 278 -5 59 17 123 75 132 119 l7 32 67 0 c96 0 100 6 100 159 0
144 11 180 63 204 39 19 92 22 102 7 3 -5 18 -10 33 -11 15 0 36 -4 46 -8 17
-6 15 -9 -15 -23 -19 -9 -49 -32 -68 -52 -27 -28 -35 -45 -39 -85 -2 -27 -2
-61 2 -75 8 -32 61 -93 97 -112 38 -19 120 -18 164 3 29 14 40 15 55 5 11 -7
47 -12 80 -12 l60 0 0 -68 c0 -89 13 -102 98 -102 82 0 92 11 92 105 l0 75 26
-10 c72 -28 176 5 219 68 l25 37 0 -30 c0 -17 7 -41 16 -53 13 -19 24 -22 83
-22 39 0 72 5 79 12 7 7 12 43 12 92 0 45 3 125 7 178 6 94 7 97 34 108 15 7
33 9 38 5 7 -4 11 -70 11 -184 0 -212 -1 -211 101 -211 37 0 70 5 77 12 9 9
12 72 12 223 0 199 -2 212 -23 249 -43 76 -118 104 -197 72 -22 -9 -45 -16
-50 -16 -6 0 -10 39 -10 93 0 59 -4 97 -12 105 -7 7 -40 12 -78 12 -52 0 -71
-4 -83 -18z m151 -132 c-1 -66 -2 -120 -1 -120 1 0 18 11 38 24 52 36 120 44
164 20 64 -35 69 -54 73 -287 l3 -207 -67 0 -68 0 0 181 c0 105 -4 188 -10
200 -14 26 -59 25 -100 -3 l-32 -23 1 -177 2 -178 -71 0 -70 0 0 345 0 345 71
0 71 0 -4 -120z m-1408 -106 c0 -42 -1 -44 -25 -38 -14 3 -32 4 -40 1 -12 -5
-12 -11 1 -44 47 -112 -41 -214 -189 -219 -74 -2 -98 -14 -78 -37 8 -11 44
-16 129 -19 134 -5 173 -19 199 -72 33 -71 -15 -157 -104 -184 -50 -15 -205
-16 -258 -1 -51 14 -105 68 -105 105 0 17 11 39 26 55 25 26 25 29 10 44 -27
27 -20 82 14 117 l30 30 -24 29 c-45 53 -47 141 -6 199 34 48 94 74 170 74 42
0 76 -6 96 -17 28 -14 33 -15 44 -2 15 18 68 33 93 27 13 -3 17 -15 17 -48z
m350 -19 l0 -65 -37 0 c-53 0 -100 -32 -123 -83 -16 -34 -20 -65 -20 -169 l0
-128 -65 0 -65 0 0 250 0 250 65 0 65 0 0 -45 0 -46 30 34 c35 40 84 66 123
67 27 0 27 -1 27 -65z m334 40 c66 -31 70 -46 77 -260 3 -104 9 -198 14 -207
6 -16 0 -18 -59 -18 -51 0 -66 3 -66 14 0 26 -19 28 -51 5 -65 -46 -165 -34
-218 26 -42 48 -48 93 -22 148 31 64 101 99 245 122 37 6 38 8 32 37 -9 45
-24 58 -67 58 -31 0 -43 -6 -61 -30 -17 -24 -28 -30 -48 -26 -14 3 -42 7 -62
11 l-38 6 19 37 c24 47 50 70 98 88 49 19 157 13 207 -11z m474 -12 c20 -16
47 -48 59 -71 44 -86 38 -242 -13 -329 -46 -80 -159 -106 -233 -54 l-31 22 0
-105 0 -106 -65 0 -65 0 0 335 0 335 65 0 c64 0 65 -1 65 -27 0 -24 1 -25 18
-10 61 56 138 60 200 10z m-1148 -234 l0 -160 -30 21 c-16 11 -54 26 -84 32
l-54 12 31 16 c17 10 45 34 61 54 26 32 31 48 34 106 3 53 8 70 21 73 9 3 17
5 19 6 1 0 2 -71 2 -160z m585 121 c0 -8 -15 -17 -39 -22 -48 -10 -54 -6 -26
22 23 23 65 24 65 0z"/>
<path d="M566 3948 c-9 -12 -16 -41 -16 -63 0 -55 22 -85 63 -85 18 0 37 4 43
8 37 25 46 110 14 142 -28 28 -84 27 -104 -2z m83 -22 c17 -20 10 -77 -11 -90
-26 -16 -52 4 -56 43 -4 36 12 61 38 61 10 0 23 -6 29 -14z"/>
<path d="M517 3544 c-4 -4 -7 -16 -7 -26 0 -41 137 -63 220 -35 42 14 52 44
18 51 -45 10 -224 17 -231 10z"/>
<path d="M1447 3769 c-87 -20 -123 -61 -97 -108 15 -29 67 -28 111 2 30 20 34
29 37 70 2 26 -1 47 -5 46 -4 -1 -25 -5 -46 -10z m23 -49 c0 -32 -79 -65 -95
-40 -10 16 13 39 49 49 45 13 46 13 46 -9z"/>
<path d="M1841 3914 c-31 -26 -31 -27 -31 -124 0 -97 0 -98 31 -124 75 -64
149 -2 149 124 0 126 -74 188 -149 124z m93 -23 c25 -27 24 -175 0 -203 -22
-23 -56 -23 -78 1 -14 15 -16 35 -14 107 3 83 5 89 28 101 34 17 44 16 64 -6z"/>
<path d="M3940 3885 l0 -345 68 0 67 0 -3 174 -3 174 34 26 c41 32 92 35 107
7 6 -12 10 -95 10 -200 l0 -181 68 0 67 0 -5 213 c-4 184 -7 217 -23 241 -25
38 -80 59 -133 51 -42 -6 -132 -61 -120 -73 7 -6 76 26 87 41 11 15 95 10 122
-8 39 -25 47 -70 47 -267 l0 -178 -39 0 -38 0 -7 178 c-8 194 -14 215 -66 226
-39 7 -81 -13 -109 -53 -19 -27 -21 -43 -21 -190 l0 -161 -40 0 -39 0 -3 188
c-2 103 -2 248 0 323 l3 137 37 -2 37 -1 3 -100 c4 -138 22 -149 22 -13 0 59
3 113 6 122 5 14 -4 16 -65 16 l-71 0 0 -345z"/>
<path d="M2790 4100 c0 -60 0 -60 -30 -60 -30 0 -30 -1 -30 -55 0 -54 0 -55
29 -55 l30 0 3 -154 c3 -137 5 -158 24 -183 33 -46 86 -66 150 -58 l54 6 0 49
0 49 -35 -6 c-60 -10 -65 2 -65 158 l0 139 50 0 50 0 0 55 0 55 -50 0 -50 0 0
60 0 60 -65 0 -65 0 0 -60z m105 -6 c0 -52 18 -74 61 -74 27 0 35 -5 40 -24 8
-33 1 -42 -33 -40 -16 1 -37 -7 -50 -18 -19 -18 -21 -30 -22 -148 -2 -122 0
-130 22 -156 16 -18 35 -29 53 -29 22 -1 30 -7 32 -23 3 -21 -1 -22 -59 -22
-56 0 -65 3 -90 30 l-29 30 0 145 c0 117 -3 151 -16 170 -9 14 -21 22 -26 19
-14 -9 -26 13 -21 40 3 13 16 27 33 33 27 10 29 14 26 57 -1 25 0 49 3 52 3 3
21 4 41 2 34 -3 35 -4 35 -44z"/>
<path d="M3185 4036 c-154 -57 -196 -312 -72 -440 68 -71 154 -83 253 -36 44
22 104 88 104 115 0 7 -20 16 -46 20 -26 3 -53 9 -60 12 -8 3 -14 -1 -14 -10
0 -8 -9 -26 -21 -41 -46 -58 -142 -17 -156 67 l-6 37 152 0 151 0 0 58 c-1 82
-34 159 -85 194 -50 35 -140 46 -200 24z m181 -42 c47 -26 71 -76 76 -159 l3
-50 -130 0 c-105 0 -135 -3 -153 -16 -22 -16 -23 -19 -11 -58 15 -52 62 -99
105 -107 37 -7 88 22 99 56 7 23 42 27 69 7 16 -12 14 -16 -20 -51 -44 -45
-73 -57 -140 -57 -59 0 -110 19 -141 52 -24 27 -63 138 -63 179 0 41 39 152
63 178 58 63 160 74 243 26z"/>
<path d="M3226 3968 c-33 -19 -66 -51 -60 -59 2 -4 0 -10 -6 -14 -14 -9 -12
-37 6 -60 12 -17 27 -20 94 -21 66 -1 82 2 96 17 25 27 4 90 -40 124 -35 27
-60 31 -90 13z m91 -40 c12 -13 24 -38 28 -55 l7 -33 -92 0 c-80 0 -91 2 -86
16 3 9 6 21 6 28 0 7 11 25 25 40 31 34 83 36 112 4z"/>
<path d="M3636 4036 c-50 -19 -90 -58 -118 -115 -32 -66 -32 -196 1 -263 81
-167 301 -170 379 -5 11 23 17 45 14 48 -4 4 -33 10 -64 14 -53 6 -58 5 -58
-13 0 -33 -38 -72 -71 -72 -60 0 -78 25 -94 127 -9 54 10 144 36 172 29 31 82
28 108 -5 12 -15 21 -36 21 -46 0 -18 5 -19 53 -13 76 10 78 13 56 59 -23 48
-55 83 -91 102 -41 21 -127 26 -172 10z m163 -32 c32 -16 81 -78 81 -101 0 -7
-9 -14 -20 -14 -11 -1 -25 -2 -30 -3 -6 -1 -16 10 -23 24 -14 28 -72 70 -98
70 -26 0 -78 -48 -94 -87 -20 -47 -19 -164 0 -211 18 -42 59 -82 85 -82 37 0
77 22 95 53 24 42 32 46 61 33 34 -16 30 -31 -22 -81 l-46 -45 -77 0 c-69 0
-80 3 -111 29 -20 16 -46 50 -59 75 -20 41 -22 58 -19 141 3 85 6 97 33 137
58 81 155 106 244 62z"/>
<path d="M2902 3444 c-26 -18 -29 -56 -6 -78 38 -39 114 -26 114 19 0 22 -4
25 -36 25 -24 0 -34 -4 -31 -12 2 -7 14 -12 27 -10 14 2 20 0 16 -7 -12 -18
-64 -13 -75 8 -8 14 -6 23 9 36 17 15 24 16 46 6 32 -14 54 -3 29 16 -25 17
-65 17 -93 -3z"/>
<path d="M3040 3416 c0 -51 17 -69 62 -69 39 0 58 25 58 75 0 56 -28 52 -32
-4 -3 -39 -6 -43 -30 -46 -27 -3 -28 -2 -28 42 0 34 -4 46 -15 46 -11 0 -15
-12 -15 -44z"/>
<path d="M3202 3403 c4 -81 28 -85 28 -4 0 48 -3 61 -15 61 -13 0 -15 -11 -13
-57z"/>
<path d="M3260 3446 c0 -9 7 -12 20 -9 18 5 20 0 20 -46 0 -40 3 -51 16 -51
12 0 15 10 13 48 -3 43 -1 47 19 46 12 0 22 5 22 13 0 9 -16 13 -55 13 -41 0
-55 -4 -55 -14z"/>
<path d="M3403 3408 c-15 -29 -29 -56 -31 -60 -2 -5 3 -8 11 -8 8 0 17 7 21
15 3 9 18 15 40 15 21 0 36 -6 40 -15 3 -8 12 -15 21 -15 12 0 9 12 -15 60
-17 33 -37 60 -45 60 -8 0 -27 -24 -42 -52z m55 -13 c-9 -9 -30 14 -23 25 6 9
10 8 17 -4 6 -10 8 -19 6 -21z"/>
<path d="M3536 3403 c1 -32 7 -59 13 -61 6 -2 11 8 11 22 0 35 34 35 56 1 9
-14 23 -25 30 -25 18 0 18 14 -1 30 -14 12 -14 15 1 31 12 14 13 22 4 38 -9
17 -20 21 -63 21 l-52 0 1 -57z m92 20 c2 -9 -8 -13 -32 -13 -26 0 -36 4 -36
16 0 19 61 16 68 -3z"/>
<path d="M3820 3400 l0 -60 45 0 c33 0 45 4 45 15 0 11 -11 15 -36 15 l-36 0
4 45 c2 31 -1 45 -9 45 -9 0 -13 -18 -13 -60z"/>
<path d="M3947 3404 c-30 -60 -29 -78 1 -51 24 22 71 22 88 0 25 -36 24 -4 -3
51 -16 33 -34 56 -43 56 -9 0 -27 -23 -43 -56z m57 11 c4 -10 -1 -15 -14 -15
-13 0 -18 5 -14 15 4 8 10 15 14 15 4 0 10 -7 14 -15z"/>
<path d="M4087 3403 l1 -58 36 -3 c54 -5 76 11 74 56 -1 51 -13 62 -67 62
l-46 0 2 -57z m83 23 c-8 -15 -60 -13 -60 2 0 9 11 12 33 10 17 -2 30 -7 27
-12z m10 -46 c0 -5 -16 -10 -35 -10 -19 0 -35 5 -35 10 0 6 16 10 35 10 19 0
35 -4 35 -10z"/>
<path d="M4241 3446 c-21 -25 -5 -45 39 -52 22 -4 40 -10 40 -15 0 -13 -64
-11 -77 2 -7 7 -12 6 -16 -5 -5 -11 4 -19 33 -27 33 -10 43 -9 65 5 45 30 25
66 -38 66 -25 0 -36 4 -31 11 4 7 21 9 46 5 30 -5 39 -3 36 6 -7 20 -82 22
-97 4z"/>
</g>
</svg>
